<?xml version="1.0" encoding="utf-8"?>
<!-- Generator: Adobe Illustrator 23.0.3, SVG Export Plug-In . SVG Version: 6.00 Build 0)  -->
<svg version="1.1" id="Layer_1" xmlns="http://www.w3.org/2000/svg" xmlns:xlink="http://www.w3.org/1999/xlink" x="0px" y="0px"
	 width="300px" height="300px" viewBox="0 0 300 300" style="enable-background:new 0 0 300 300;" xml:space="preserve">
<style type="text/css">
	.st0{fill:#2864CD;}
</style>
<g>
	<g>
		<g>
			<path class="st0" d="M150,0C67.2,0,0,67.2,0,150s67.2,150,150,150s150-67.2,150-150S232.8,0,150,0z M225.4,123.3L188.7,160
				c-4,4-9.3,6.2-14.9,6.2c-5.6,0-10.9-2.2-14.9-6.2l-1.4-1.4l-3.9,3.9l1.4,1.4c8.2,8.2,8.2,21.6,0,29.8l-36.7,36.7
				c-4,4-9.3,6.2-14.9,6.2c-5.6,0-10.9-2.2-14.9-6.2l-13.9-13.9c-8.2-8.2-8.2-21.6,0-29.8l36.7-36.7c4-4,9.3-6.2,14.9-6.2
				s10.9,2.2,14.9,6.2l1.4,1.4l3.9-3.9l-1.4-1.4c-8.2-8.2-8.2-21.6,0-29.8l36.7-36.7c4-4,9.3-6.2,14.9-6.2s10.9,2.2,14.9,6.2
				l13.9,13.9C233.6,101.7,233.6,115.1,225.4,123.3z"/>
			<path class="st0" d="M142.5,173.5l-7.1,7.1l-11-11l7.1-7.1l-1.4-1.4c-1-1-2.4-1.6-3.9-1.6c-1.5,0-2.9,0.6-3.9,1.6l-36.7,36.7
				c-2.1,2.1-2.1,5.6,0,7.8l13.9,13.9c2.1,2.1,5.7,2.1,7.8,0l36.7-36.7c2.1-2.1,2.1-5.6,0-7.8L142.5,173.5z"/>
			<path class="st0" d="M200.5,90.6c-1-1-2.4-1.6-3.9-1.6s-2.9,0.6-3.9,1.6L156,127.3c-2.1,2.1-2.1,5.6,0,7.8l1.4,1.4l10.9-10.9
				l11,11l-10.9,10.9l1.4,1.4c2.1,2.1,5.7,2.1,7.8,0l36.7-36.7c2.1-2.1,2.1-5.6,0-7.8L200.5,90.6z"/>
		</g>
	</g>
</g>
</svg>
